HIERARCHY
ROOT Hips
{
	OFFSET -3.958830 18.904000 13.208200
	CHANNELS 6 Xposition Yposition Zposition Zrotation Yrotation Xrotation 
	JOINT LHipJoint
	{
		OFFSET 0.000000 0.000000 0.000000
		CHANNELS 3 Zrotation Yrotation Xrotation
		JOINT LeftUpLeg
		{
			OFFSET 1.800000 -1.400000 0.085000
			CHANNELS 3 Zrotation Yrotation Xrotation
			JOINT LeftLeg
			{
				OFFSET 2.215000 -6.000000 0.000000
				CHANNELS 3 Zrotation Yrotation Xrotation
				JOINT LeftFoot
				{
					OFFSET 2.500000 -6.900000 0.000000
					CHANNELS 3 Zrotation Yrotation Xrotation
					JOINT LeftToeBase
					{
						OFFSET 0.200000 -0.500000 1.950000
						CHANNELS 3 Zrotation Yrotation Xrotation
						End Site
						{
							OFFSET 0.000000 0.000000 0.000000
						}
					}
				}
			}
		}
	}
	JOINT RHipJoint
	{
		OFFSET 0.000000 0.000000 0.000000
		CHANNELS 3 Zrotation Yrotation Xrotation
		JOINT RightUpLeg
		{
			OFFSET -1.800000 -1.400000 0.085000
			CHANNELS 3 Zrotation Yrotation Xrotation
			JOINT RightLeg
			{
				OFFSET -2.215000 -6.000000 0.000000
				CHANNELS 3 Zrotation Yrotation Xrotation
				JOINT RightFoot
				{
					OFFSET -2.500000 -6.900000 0.000000
					CHANNELS 3 Zrotation Yrotation Xrotation
					JOINT RightToeBase
					{
						OFFSET -0.200000 -0.500000 1.950000
						CHANNELS 3 Zrotation Yrotation Xrotation
						End Site
						{
							OFFSET 0.000000 0.000000 0.000000
						}
					}
				}
			}
		}
	}
	JOINT LowerBack
	{
		OFFSET 0.000000 0.000000 0.000000
		CHANNELS 3 Zrotation Yrotation Xrotation
		JOINT Spine
		{
			OFFSET -0.087000 1.940000 -0.288900
			CHANNELS 3 Zrotation Yrotation Xrotation
			JOINT Spine1
			{
				OFFSET 0.000000 1.950000 0.060000
				CHANNELS 3 Zrotation Yrotation Xrotation
				JOINT Neck
				{
					OFFSET 0.000000 0.000000 0.000000
					CHANNELS 3 Zrotation Yrotation Xrotation
					JOINT Neck1
					{
						OFFSET 0.000000 1.600000 0.340000
						CHANNELS 3 Zrotation Yrotation Xrotation
						JOINT Head
						{
							OFFSET 0.000000 1.667000 -0.240000
							CHANNELS 3 Zrotation Yrotation Xrotation
							End Site
							{
								OFFSET 0.000000 0.000000 0.000000
							}
						}
					}
				}
				JOINT LeftShoulder
				{
					OFFSET 0.000000 0.000000 0.000000
					CHANNELS 3 Zrotation Yrotation Xrotation
					JOINT LeftArm
					{
						OFFSET 2.700000 1.550000 -0.730000
						CHANNELS 3 Zrotation Yrotation Xrotation
						JOINT LeftForeArm
						{
							OFFSET 5.450000 0.000000 0.000000
							CHANNELS 3 Zrotation Yrotation Xrotation
							JOINT LeftHand
							{
								OFFSET 3.450000 0.000000 0.000000
								CHANNELS 3 Zrotation Yrotation Xrotation
								JOINT LeftHandIndex1
								{
									OFFSET 0.750000 0.000000 0.000000
									CHANNELS 3 Zrotation Yrotation Xrotation
									End Site
									{
										OFFSET 0.000000 0.000000 0.000000
									}
								}
							}
						}
					}
				}
				JOINT RightShoulder
				{
					OFFSET 0.000000 0.000000 0.000000
					CHANNELS 3 Zrotation Yrotation Xrotation
					JOINT RightArm
					{
						OFFSET -2.700000 1.550000 -0.730000
						CHANNELS 3 Zrotation Yrotation Xrotation
						JOINT RightForeArm
						{
							OFFSET -5.450000 0.000000 0.000000
							CHANNELS 3 Zrotation Yrotation Xrotation
							JOINT RightHand
							{
								OFFSET -3.450000 0.000000 0.000000
								CHANNELS 3 Zrotation Yrotation Xrotation
								JOINT RightHandIndex1
								{
									OFFSET -0.750000 0.000000 0.000000
									CHANNELS 3 Zrotation Yrotation Xrotation
									End Site
									{
										OFFSET 0.000000 0.000000 0.000000
									}
								}
							}
						}
					}
				}
			}
		}
	}
}
MOTION
Frames: 8
Frame Time: 0.016667
0.082180 16.885450 -25.512390 -2.074039 -8.871582 -1.577375 -16.041065 11.683351 4.530780 7.402866 -3.114753 -2.707757 -31.804534 2.719520 -11.668425 0.261979 7.207628 1.772528 -0.752550 -1.432140 0.486080 17.801648 -8.231192 3.502014 2.978613 1.172595 -10.942850 15.494125 -1.119745 -15.899333 -0.307835 -2.814916 2.281864 -0.630750 0.072650 0.365110 -1.652057 -3.720449 -9.098714 -1.586502 -1.260996 6.505007 7.774930 -1.405843 6.334490 1.045402 -0.786089 -12.231519 -8.016418 0.657888 52.149759 0.303390 -1.722640 -6.810800 -33.177330 -17.648950 6.215885 -52.935807 -14.937744 -1.593945 -6.622949 -34.724616 -1.407467 -3.783073 2.939281 0.745470 -0.377060 0.256720 -0.758490 33.509033 17.580595 10.118365 43.107821 -2.133039 -9.113755 -13.840763 18.167771 -1.967768 3.193805 -0.594804 -0.535850 0.077340 0.837340 -0.245440 
0.042890 16.905280 -25.429000 -0.966735 -12.585646 -1.792831 -16.160552 11.659458 4.571342 6.219506 -2.058021 0.885043 -30.903556 1.903487 -15.465712 0.352062 7.199863 1.789857 -0.695250 -1.366750 0.540140 17.727636 -8.284595 3.350656 2.563317 1.343614 -11.329969 15.830057 -1.476477 -13.372743 -0.326979 -2.679123 2.314322 -0.623730 0.000260 0.355430 -1.391072 -3.535524 -8.926155 -3.556061 -0.050786 4.889482 9.102121 -0.236575 5.669182 1.123836 -1.360814 -11.907956 -9.683657 1.765036 55.294284 0.180330 -1.115060 -8.051800 -33.435134 -15.135923 5.688373 -53.385216 -12.956004 -1.819907 -8.080959 -36.011591 -0.874540 -3.729607 2.923519 0.785130 -0.439150 0.314310 -0.757190 34.123411 16.094064 9.766265 42.246997 -2.528297 -9.020932 -13.244291 18.133791 -1.770413 3.218659 -0.571005 -0.499640 0.073170 0.800370 -0.259050 
0.000430 16.936390 -25.344590 0.451744 -15.292368 -2.384604 -16.269630 11.883837 4.527472 4.438838 -0.793588 4.554953 -28.967548 1.815821 -17.319565 0.380826 7.108782 1.794726 -0.627470 -1.278180 0.597550 17.623185 -8.414596 3.172876 1.195537 1.496872 -12.489646 16.764916 -2.197467 -9.065457 -0.326412 -2.491194 2.350152 -0.599150 -0.093990 0.348970 -1.067042 -3.605254 -8.713454 -6.371278 0.424338 4.044895 10.563903 0.283856 4.722022 1.025386 -2.067442 -11.689210 -11.843281 3.809502 59.300268 1.448400 -0.191330 -10.811870 -33.694930 -12.548391 5.362530 -53.176269 -10.378703 -2.565859 -10.365554 -38.361002 -0.047897 -3.648307 2.914541 0.859480 -0.519100 0.397910 -0.772630 35.093396 14.480807 9.124689 41.093499 -2.073892 -9.109425 -12.825186 18.385259 -1.646836 3.245148 -0.523805 -0.467230 0.062030 0.762310 -0.278800 
-0.022920 16.939630 -25.274410 1.146423 -17.480702 -2.277376 -16.308804 12.068592 4.580924 2.071206 0.266063 8.082431 -25.387296 1.142713 -21.204009 0.416716 6.993108 1.846520 -0.587840 -1.220890 0.610670 17.610948 -8.477542 2.962245 1.061195 1.860104 -14.501416 16.291149 -2.836095 -4.635658 -0.275109 -2.203522 2.435746 -0.578240 -0.109740 0.338940 -0.990725 -3.811301 -8.532011 -6.885218 -0.165886 3.586397 10.492188 -0.113520 3.875636 0.620761 -3.458974 -10.714187 -15.366363 6.495854 59.513618 2.475510 0.899600 -12.829810 -32.859563 -9.147809 4.777116 -53.121153 -8.332425 -2.935895 -13.485959 -41.201487 1.245901 -3.621707 2.936935 0.880220 -0.553450 0.426850 -0.754720 35.043805 12.181428 7.551736 40.644354 0.573908 -8.657643 -11.377844 18.385227 -1.443024 3.264187 -0.474851 -0.454830 0.082670 0.739760 -0.272290 
-0.063340 16.925130 -25.259750 2.625210 -19.179227 -1.952811 -16.349358 12.361145 4.542062 -0.039901 0.828324 8.583854 -23.504375 1.339262 -21.019446 0.400524 6.853667 1.922848 -0.618580 -1.245240 0.578730 17.566814 -8.560133 2.778611 1.316878 2.334963 -17.727067 14.272824 -3.320366 0.156012 -0.140158 -1.831563 2.572451 -0.588430 -0.054200 0.330030 -0.827430 -4.159773 -8.325738 -10.323772 -0.010711 3.885988 12.528011 -0.029579 3.451628 -0.407903 -4.024046 -9.883052 -16.220283 7.142872 55.908395 3.111940 1.587530 -13.182010 -30.798749 -7.156881 4.550665 -54.288175 -7.839169 -2.972547 -16.000099 -43.344364 2.357282 -3.662704 2.952717 0.848760 -0.522620 0.390630 -0.744230 34.956896 10.803307 6.543288 40.422806 2.086626 -8.986363 -10.211081 20.649966 -1.505263 3.240439 -0.481345 -0.471980 0.103760 0.749070 -0.255240 
-0.089780 16.910910 -25.160700 3.175490 -20.373562 -1.122532 -16.354948 12.582284 4.488963 -1.127772 1.303336 8.998560 -22.413335 1.725009 -20.193979 0.427917 6.792956 1.980735 -0.669380 -1.298280 0.508920 17.553633 -8.595274 2.696324 1.513450 2.802077 -20.124454 13.189394 -3.686700 4.021491 -0.040146 -1.677166 2.641998 -0.617920 0.016450 0.326470 -0.770557 -4.445654 -8.174744 -11.380562 -0.378200 3.385086 13.709629 -0.237181 2.159620 -1.016905 -5.048244 -8.875834 -18.173617 7.867821 51.768358 3.132800 1.694760 -11.311820 -29.716619 -3.854260 3.923066 -55.570705 -6.163839 -2.739131 -19.921215 -43.979183 4.099460 -3.719524 3.016179 0.777070 -0.476550 0.326840 -0.719610 34.993779 8.158674 5.746496 39.102977 0.647509 -10.087219 -6.451935 26.667147 -1.125722 3.171475 -0.570657 -0.474380 0.102680 0.769580 -0.222920 
-0.100290 16.903620 -25.018870 2.121820 -21.339949 -0.501279 -16.336147 12.765979 4.451085 -0.813962 1.632619 10.028487 -21.143557 2.290600 -19.054578 0.465685 6.782565 2.009508 -0.686350 -1.313880 0.482130 17.553955 -8.636760 2.712434 2.738912 3.355306 -21.128889 12.195781 -4.021539 7.523876 -0.007513 -1.622132 2.668286 -0.640370 0.035800 0.320190 -0.757374 -4.625499 -8.174574 -9.549373 -0.814286 3.825179 13.406871 -0.422075 1.059842 -0.794045 -6.166339 -8.463554 -20.601619 8.505787 49.498589 2.695690 1.562970 -10.939780 -29.506552 -1.432105 3.292187 -55.873182 -4.324477 -2.813014 -23.505384 -43.532974 5.528701 -3.731469 3.050498 0.745700 -0.472950 0.307580 -0.706170 34.289617 6.503562 5.497156 38.062338 -1.191395 -10.904088 -2.570776 31.634754 -0.342380 3.131139 -0.651021 -0.461320 0.102480 0.769550 -0.201600 
-0.125830 16.916890 -24.857610 2.496769 -22.014126 -0.981242 -16.284899 13.087725 4.222396 -1.299819 2.122187 9.733221 -20.066804 3.898141 -13.055196 0.408582 6.585041 2.066520 -0.693610 -1.317090 0.472930 17.537750 -8.867166 2.730754 2.584877 3.397666 -21.154358 11.043149 -4.275882 10.284761 -0.000876 -1.674897 2.652126 -0.656400 0.024050 0.316730 -0.722466 -4.685498 -8.043722 -10.310558 -0.654204 3.996961 14.117335 -0.147605 0.104562 -0.683620 -6.391429 -8.565106 -21.401980 9.061629 49.977781 2.975240 1.619590 -10.376110 -29.201529 -0.232385 3.214634 -55.966337 -2.252453 -3.285418 -26.326799 -42.230912 6.338816 -3.726672 3.059335 0.744660 -0.481950 0.312880 -0.711560 33.903611 5.623377 5.542957 37.862769 -3.141911 -11.682252 -2.129627 33.456432 -0.246195 3.124653 -0.687637 -0.446800 0.087150 0.765640 -0.197040 
